<svg id="Euros" xmlns="http://www.w3.org/2000/svg" xmlns:xlink="http://www.w3.org/1999/xlink" width="45" height="45" viewBox="0 0 45 45">
  <defs>
    <linearGradient id="linear-gradient" x1="0.946" y1="0.696" x2="0.17" y2="0.14" gradientUnits="objectBoundingBox">
      <stop offset="0" stop-color="#072767"/>
      <stop offset="1" stop-color="#3a67be"/>
    </linearGradient>
  </defs>
  <g id="Euros-2" data-name="Euros">
    <path id="Elipse_215" data-name="Elipse 215" d="M22.5,0A22.5,22.5,0,1,1,0,22.5,22.5,22.5,0,0,1,22.5,0Z" fill="url(#linear-gradient)"/>
    <path id="Trazado_6594" data-name="Trazado 6594" d="M4.437-.674A6.314,6.314,0,0,0,9.395-3L12.28-.31a9.1,9.1,0,0,1-3.459,2.6,11.427,11.427,0,0,1-4.608.9A11.657,11.657,0,0,1-.311,2.323,9.845,9.845,0,0,1-3.854-.142a9.584,9.584,0,0,1-2.1-3.7H-9.12V-6.192h2.745A7.467,7.467,0,0,1-6.4-6.948,7.467,7.467,0,0,1-6.375-7.7H-9.12v-2.353h3.165a9.584,9.584,0,0,1,2.1-3.7A9.845,9.845,0,0,1-.311-16.22a11.657,11.657,0,0,1,4.524-.868,11.427,11.427,0,0,1,4.608.9,9.229,9.229,0,0,1,3.459,2.577L9.395-10.926a6.4,6.4,0,0,0-4.958-2.3,6.493,6.493,0,0,0-3.305.84,5.715,5.715,0,0,0-2.241,2.325H5.977V-7.7H-1.809a7.467,7.467,0,0,0-.028.756,7.467,7.467,0,0,0,.028.756H5.977v2.353H-1.109A5.715,5.715,0,0,0,1.132-1.514,6.493,6.493,0,0,0,4.437-.674Z" transform="translate(18.968 29.448)" fill="#fff"/>
  </g>
</svg>
