<svg id="USDT" xmlns="http://www.w3.org/2000/svg" xmlns:xlink="http://www.w3.org/1999/xlink" width="45" height="45" viewBox="0 0 45 45">
  <defs>
    <linearGradient id="linear-gradient" x1="0.199" y1="0.108" x2="0.888" y2="0.809" gradientUnits="objectBoundingBox">
      <stop offset="0" stop-color="#53ae94"/>
      <stop offset="1" stop-color="#0b4e65"/>
    </linearGradient>
  </defs>
  <g id="USDT-2" data-name="USDT">
    <g id="Grupo_5483" data-name="Grupo 5483">
      <path id="Trazado_4866" data-name="Trazado 4866" d="M22.5,0A22.5,22.5,0,1,1,0,22.5,22.5,22.5,0,0,1,22.5,0Z" fill="url(#linear-gradient)"/>
      <path id="Trazado_3771" data-name="Trazado 3771" d="M1101.5,962.857v-2.382a.4.4,0,0,1,.4-.4h5.561a.4.4,0,0,0,.4-.4v-3.441a.4.4,0,0,0-.4-.4h-16.508a.4.4,0,0,0-.4.4v3.441a.4.4,0,0,0,.4.4h5.562a.4.4,0,0,1,.4.4v2a.4.4,0,0,1-.376.4c-4.975.269-8.67,1.271-8.67,2.466s3.7,2.2,8.671,2.467a.4.4,0,0,1,.376.4v8.126a.4.4,0,0,0,.4.4h3.8a.4.4,0,0,0,.4-.4V968.2a.4.4,0,0,1,.376-.4c4.966-.269,8.653-1.271,8.653-2.465,0-1.224-3.875-2.246-9.029-2.484m0,4.214v0c-.13.008-.8.048-2.278.048-1.186,0-2.02-.034-2.314-.049v0c-4.562-.2-7.967-1-7.967-1.947,0-.922,3.2-1.7,7.549-1.926a.4.4,0,0,1,.418.4v2.313a.4.4,0,0,0,.375.4c.426.022,1.108.049,1.958.049.907,0,1.525-.024,1.887-.045a.4.4,0,0,0,.373-.4V963.6a.4.4,0,0,1,.418-.4c4.342.232,7.532,1.007,7.532,1.925,0,.947-3.4,1.743-7.951,1.946" transform="translate(-1076.693 -943.785)" fill="#fff"/>
    </g>
  </g>
</svg>
