<svg id="SHIBA" xmlns="http://www.w3.org/2000/svg" xmlns:xlink="http://www.w3.org/1999/xlink" width="50" height="50" viewBox="0 0 50 50">
  <defs>
    <clipPath id="clip-path">
      <rect id="Rectángulo_3325" data-name="Rectángulo 3325" width="50" height="50" fill="none"/>
    </clipPath>
    <linearGradient id="linear-gradient" x1="0.2" y1="0.186" x2="0.808" y2="0.863" gradientUnits="objectBoundingBox">
      <stop offset="0" stop-color="#e84142"/>
      <stop offset="1" stop-color="#831212"/>
    </linearGradient>
  </defs>
  <g id="AVAX">
    <g id="Grupo_8305" data-name="Grupo 8305" clip-path="url(#clip-path)">
      <path id="Trazado_7441" data-name="Trazado 7441" d="M25,0A25,25,0,1,1,0,25,25,25,0,0,1,25,0" fill-rule="evenodd" fill="url(#linear-gradient)"/>
      <path id="Trazado_7442" data-name="Trazado 7442" d="M61.916,50.156c.813-1.4,2.124-1.4,2.937,0l5.061,8.884c.813,1.4.148,2.549-1.478,2.549H58.24c-1.607,0-2.272-1.145-1.478-2.549Zm-9.789-17.1c.813-1.4,2.106-1.4,2.918,0l1.127,2.032,2.66,4.673a4.855,4.855,0,0,1,0,4.23L49.91,59.447a4.691,4.691,0,0,1-3.657,2.143H38.847c-1.625,0-2.29-1.127-1.478-2.549Z" transform="translate(-28.641 -24.728)" fill="#fff"/>
    </g>
  </g>
</svg>
