<svg id="SOLANA" xmlns="http://www.w3.org/2000/svg" xmlns:xlink="http://www.w3.org/1999/xlink" width="45" height="45" viewBox="0 0 45 45">
  <defs>
    <linearGradient id="linear-gradient" x1="0.247" y1="0.082" x2="0.803" y2="0.894" gradientUnits="objectBoundingBox">
      <stop offset="0" stop-color="#77e0c6"/>
      <stop offset="1" stop-color="#5a1d6f"/>
    </linearGradient>
  </defs>
  <g id="Solana_SOL_" data-name="Solana (SOL)">
    <g id="Grupo_5679" data-name="Grupo 5679">
      <g id="Grupo_6072" data-name="Grupo 6072">
        <ellipse id="Elipse_356" data-name="Elipse 356" cx="22.5" cy="22.5" rx="22.5" ry="22.5" fill="url(#linear-gradient)"/>
        <g id="Grupo_6071" data-name="Grupo 6071" transform="translate(10.203 12.864)">
          <path id="Trazado_4873" data-name="Trazado 4873" d="M337.858,984.473a.749.749,0,0,1,.566-.273h19.629a.475.475,0,0,1,.283.792l-3.879,4.489a.748.748,0,0,1-.566.273H334.267a.475.475,0,0,1-.283-.792Z" transform="translate(-333.865 -970.482)" fill="#fff"/>
          <path id="Trazado_4874" data-name="Trazado 4874" d="M337.858,677.273a.748.748,0,0,1,.566-.273h19.629a.475.475,0,0,1,.283.792l-3.879,4.489a.748.748,0,0,1-.566.273H334.267a.475.475,0,0,1-.283-.792Z" transform="translate(-333.865 -677)" fill="#fff"/>
          <path id="Trazado_4875" data-name="Trazado 4875" d="M354.457,829.873a.749.749,0,0,0-.566-.273H334.267a.475.475,0,0,0-.283.792l3.879,4.489a.748.748,0,0,0,.566.273h19.629a.475.475,0,0,0,.283-.792Z" transform="translate(-333.865 -822.786)" fill="#fff"/>
        </g>
      </g>
    </g>
  </g>
</svg>
