<svg id="SHIBA" xmlns="http://www.w3.org/2000/svg" xmlns:xlink="http://www.w3.org/1999/xlink" width="50" height="50" viewBox="0 0 50 50">
  <defs>
    <linearGradient id="linear-gradient" x1="0.189" y1="0.137" x2="0.789" y2="0.88" gradientUnits="objectBoundingBox">
      <stop offset="0" stop-color="#d99898"/>
      <stop offset="1" stop-color="#989090"/>
    </linearGradient>
    <linearGradient id="linear-gradient-2" x1="0.148" y1="0.194" x2="0.861" y2="0.818" gradientUnits="objectBoundingBox">
      <stop offset="0" stop-color="#f00500"/>
      <stop offset="1" stop-color="#980703"/>
    </linearGradient>
    <clipPath id="clip-path">
      <rect id="Rectángulo_3324" data-name="Rectángulo 3324" width="38" height="38" transform="translate(-0.086 -0.087)" fill="none"/>
    </clipPath>
  </defs>
  <g id="Shiba-2" data-name="Shiba">
    <g id="Shiba-3" data-name="Shiba" transform="translate(6.408 6.408)">
      <g id="Grupo">
        <circle id="Elipse_596" data-name="Elipse 596" cx="25" cy="25" r="25" transform="translate(-6.408 -6.408)" fill="url(#linear-gradient)" style="mix-blend-mode: hard-light;isolation: isolate"/>
        <circle id="Elipse_595" data-name="Elipse 595" cx="25" cy="25" r="25" transform="translate(-6.408 -6.408)" fill="url(#linear-gradient-2)"/>
        <g id="Grupo_8303" data-name="Grupo 8303" transform="translate(-0.322 -0.321)" clip-path="url(#clip-path)">
          <path id="Trazado_7427" data-name="Trazado 7427" d="M392.153,285.04a1.941,1.941,0,0,1-.563.568,9.768,9.768,0,0,1-3.691,1.377,4.589,4.589,0,0,1-1.909.052c-.162-.08-.186-.143-.128-.35a2.8,2.8,0,0,1,1.132-1.343c.313-.224,1.584-.987,2.176-1.308a7.744,7.744,0,0,1,2.3-.918,1.2,1.2,0,0,1,.435,0c.1.04.221.344.267.711a9.254,9.254,0,0,1-.017,1.211" transform="translate(-363.147 -266.563)"/>
          <path id="Trazado_7428" data-name="Trazado 7428" d="M154.661,287.918a.634.634,0,0,1-.406.172,6.635,6.635,0,0,1-1.143-.029,12.122,12.122,0,0,1-3.488-.993,4.4,4.4,0,0,1-1.2-.8l-.163-.166-.017-.218a5.927,5.927,0,0,1,.023-1.188,1.546,1.546,0,0,1,.18-.5c.046-.057.046-.057.255-.057a2.537,2.537,0,0,1,.818.149,16.053,16.053,0,0,1,3.07,1.515,5.313,5.313,0,0,1,1.776,1.365,1.139,1.139,0,0,1,.3.752" transform="translate(-139.328 -267.541)"/>
          <path id="Trazado_7429" data-name="Trazado 7429" d="M263.2,400.724c0,.017-.07.293-.157.62s-.157.591-.157.6a1,1,0,0,1-.186.006h-.186l-.255.6c-.139.327-.267.631-.284.677l-.035.08-.122-.2-.122-.2v-1.589l-.046.011c-.1.023-.8.115-1.108.143a16,16,0,0,1-3.813-.08c-.2-.029-.377-.052-.383-.046s0,.373.012.826l.017.815-.1.149c-.052.08-.1.149-.1.155-.017.017-.076-.075-.209-.339a3.848,3.848,0,0,1-.325-.872l-.041-.166-.18.011-.18.017-.046-.212c-.023-.115-.052-.293-.064-.39l-.017-.184-.151-.132c-.087-.075-.174-.149-.192-.161a.125.125,0,0,1-.041-.1v-.069l.725.006.725.006.023.075.023.075.25.011c.139.006.58.017.975.029l.725.017.186-.287.192-.287h.244l-.006-.6-.006-.6-.319-.138a3.1,3.1,0,0,1-1.857-1.578,2.171,2.171,0,0,1-.058-.746,2.252,2.252,0,0,1,.035-.746.839.839,0,0,1,.6-.585,13.976,13.976,0,0,1,1.729-.029l1.613.006.18.086a1.007,1.007,0,0,1,.435.338.94.94,0,0,1,.18.677,5,5,0,0,1-.087,1.1,2.371,2.371,0,0,1-.337.66,3.092,3.092,0,0,1-1.3.9l-.139.052.006.6.006.6.128.011.128.011.174.258.168.258h.778c.429,0,.807.006.841.011.058.012.07.006.128-.092l.07-.1h.667a2.132,2.132,0,0,1,.65.006" transform="translate(-239.653 -372.362)"/>
          <path id="Trazado_7430" data-name="Trazado 7430" d="M301.679,509.925c-.11.063-.186.092-.2.08s-.1-.075-.186-.138l-.157-.126-.163.172c-.354.379-.366.4-.47.4-.163.017-.2-.011-.395-.3-.1-.149-.186-.275-.186-.275s-.075-.011-.162-.017l-.162-.017-.075.155-.075.155-.133-.04a2.833,2.833,0,0,1-.308-.121l-.174-.086v-.327l1.544.006,1.544.006.006.155c.006.184.012.178-.244.321" transform="translate(-281.194 -479.915)"/>
          <path id="Trazado_7431" data-name="Trazado 7431" d="M73.562,350.785c-.006-.023-.006-.063-.012-.126a12.445,12.445,0,0,0-9.059,2.771s-1.19-5.393-6.761-5.393-7.637,5.393-7.637,5.393a10.107,10.107,0,0,0-8.81-2.863c0,.034-.006.075-.006.109a4.941,4.941,0,0,0,.116,1.75,11.23,11.23,0,0,0,3.877,5.2c3.441,2.892,8.107,4.98,11.642,5.221,3.685.247,9.123-1.882,12.744-4.991a18.1,18.1,0,0,0,1.6-1.589,8.71,8.71,0,0,0,.853-1.125c-.012,0,0-.011.023-.023s.035-.029.023-.04.006-.023.023-.029.029-.017.023-.029,0-.023.023-.029a.026.026,0,0,0,.017-.034c-.006-.011,0-.023.012-.023s.023-.017.023-.029.012-.029.023-.029a.025.025,0,0,0,.023-.023.6.6,0,0,1,.075-.132c.087-.132.435-.746.482-.849a7.847,7.847,0,0,0,.638-2.06,6.875,6.875,0,0,0,.041-1.033m-14.509,7c-.11.063-.186.092-.2.08s-.1-.075-.186-.138l-.157-.126-.162.172c-.354.379-.366.4-.47.4-.162.017-.2-.012-.395-.3-.1-.149-.186-.275-.186-.275s-.075-.011-.163-.017l-.162-.017-.075.155-.075.155-.133-.04a2.844,2.844,0,0,1-.308-.12l-.174-.086V357.3l1.544.006,1.544.006.006.155c.006.184.012.178-.244.321m2.9-1.033c-.087.327-.157.591-.157.6a1,1,0,0,1-.186.006h-.186l-.25.6c-.139.327-.267.631-.284.677l-.035.08-.122-.2-.122-.2V356.74l-.046.011c-.1.023-.8.115-1.108.143a16,16,0,0,1-3.813-.08c-.2-.029-.377-.052-.383-.046s0,.373.012.826l.017.815-.1.149c-.052.08-.1.149-.1.155-.017.017-.075-.075-.209-.338a3.85,3.85,0,0,1-.325-.872l-.041-.166-.18.012-.18.017-.046-.212c-.023-.115-.052-.293-.064-.39l-.017-.184-.151-.132c-.087-.075-.174-.149-.192-.161a.125.125,0,0,1-.041-.1v-.069l.725.006.725.006.023.075.023.075.25.012c.139.006.58.017.975.029l.725.017.186-.287.192-.287h.244l-.006-.6-.006-.6-.319-.138a3.1,3.1,0,0,1-1.857-1.578,2.175,2.175,0,0,1-.058-.746,2.253,2.253,0,0,1,.035-.746.839.839,0,0,1,.6-.585,14.007,14.007,0,0,1,1.729-.029l1.613.006.18.086a1.008,1.008,0,0,1,.435.339.94.94,0,0,1,.18.677,5,5,0,0,1-.087,1.1,2.367,2.367,0,0,1-.337.66,3.092,3.092,0,0,1-1.3.9l-.139.052.006.6.006.6.128.011.128.011.174.258.168.258h.778c.429,0,.807.006.841.012.058.011.07.006.128-.092l.07-.1h.667a2.844,2.844,0,0,1,.667.023,3.93,3.93,0,0,0-.18.6" transform="translate(-38.567 -327.775)" fill="#fff"/>
          <path id="Trazado_7432" data-name="Trazado 7432" d="M73.774,22.13c-.012-.258-.035-.62-.052-.8a16.693,16.693,0,0,0-2.2-6.988,1.984,1.984,0,0,1-.128-.241.336.336,0,0,1-.023-.046c.18-.534.917-2.765,1.5-5.318.8-3.465,1.3-7.516-.244-8.732,0,0-2.67-.2-6.245,3.27a23.777,23.777,0,0,0-2.646,3.1l-.25-.08a18.3,18.3,0,0,0-4.434-.849c-.453-.034-2.141-.034-2.693,0a15.82,15.82,0,0,0-4.393.855c-.058.023-.11.04-.162.057a23.438,23.438,0,0,0-2.733-3.081C45.354-.2,42.586,0,42.586,0c-1.637,1.256-1.079,5.491-.232,9.071.557,2.369,1.242,4.452,1.5,5.2a1.29,1.29,0,0,1-.064.126,20.62,20.62,0,0,0-2.258,8.1,10.1,10.1,0,0,1,8.815,2.863s2.066-5.393,7.637-5.393,6.761,5.393,6.761,5.393A12.472,12.472,0,0,1,73.8,22.589c-.006-.115-.017-.287-.029-.459M44.948,12.113s-2.17-5.364-1.613-8.428a2.938,2.938,0,0,1,.54-1.314s2.461.241,6.43,4.6A11.365,11.365,0,0,0,48.541,8.1a.02.02,0,0,1-.012.006,13.848,13.848,0,0,0-3.581,4m9.21,7.969a.634.634,0,0,1-.406.172,6.639,6.639,0,0,1-1.143-.029,12.12,12.12,0,0,1-3.488-.993,4.395,4.395,0,0,1-1.2-.8l-.162-.166-.017-.218a5.928,5.928,0,0,1,.023-1.188,1.547,1.547,0,0,1,.18-.5c.046-.057.046-.057.255-.057a2.538,2.538,0,0,1,.818.149,16.056,16.056,0,0,1,3.07,1.515,5.313,5.313,0,0,1,1.776,1.365,1.139,1.139,0,0,1,.3.752m13.673-1.9a1.941,1.941,0,0,1-.563.568,9.769,9.769,0,0,1-3.691,1.377,4.588,4.588,0,0,1-1.909.052c-.162-.08-.186-.143-.128-.35a2.8,2.8,0,0,1,1.132-1.343c.313-.224,1.584-.987,2.176-1.308a7.742,7.742,0,0,1,2.3-.918,1.194,1.194,0,0,1,.435,0c.1.04.221.344.267.711a9.26,9.26,0,0,1-.017,1.211M66.868,8.1,66.856,8.1a10.85,10.85,0,0,0-1.706-1.13c3.836-4.36,6.21-4.6,6.21-4.6a3.092,3.092,0,0,1,.522,1.314c.54,3.064-1.555,8.434-1.555,8.434A13.709,13.709,0,0,0,66.868,8.1" transform="translate(-38.826 0.294)" fill="#ffa409"/>
          <path id="Trazado_7433" data-name="Trazado 7433" d="M455.268,42.551c-.453-.057-2.594-.069-5.02,4.423l-.012-.006a10.848,10.848,0,0,0-1.706-1.13c3.836-4.36,6.21-4.6,6.21-4.6a3.025,3.025,0,0,1,.528,1.314" transform="translate(-422.206 -38.577)" fill="#ff9300"/>
          <path id="Trazado_7434" data-name="Trazado 7434" d="M481.595,72.383a13.656,13.656,0,0,0-3.465-4.01c2.426-4.492,4.561-4.481,5.02-4.423.54,3.069-1.555,8.434-1.555,8.434" transform="translate(-450.088 -59.976)" fill="#ff8300"/>
          <path id="Trazado_7435" data-name="Trazado 7435" d="M564.717,64.154l-.087-.017Z" transform="translate(-531.568 -60.163)" fill="#ff8300"/>
          <path id="Trazado_7436" data-name="Trazado 7436" d="M79.506,45.838a11.365,11.365,0,0,0-1.764,1.13.02.02,0,0,1-.012.006c-2.513-4.5-4.724-4.481-5.2-4.423a2.938,2.938,0,0,1,.54-1.314c.006,0,2.466.241,6.436,4.6" transform="translate(-68.027 -38.577)" fill="#ff9300"/>
          <path id="Trazado_7437" data-name="Trazado 7437" d="M76.346,68.373a13.806,13.806,0,0,0-3.587,4.01s-2.17-5.364-1.613-8.434c.47-.057,2.687-.069,5.2,4.423" transform="translate(-66.637 -59.976)" fill="#ff8300"/>
          <path id="Trazado_7438" data-name="Trazado 7438" d="M71.123,64.137l-.093.017Z" transform="translate(-66.614 -60.163)" fill="#ff8300"/>
          <path id="Trazado_7439" data-name="Trazado 7439" d="M409.929,215.753s-1.857.115-1.625-1.32a1.916,1.916,0,0,1,2.089-1.549c.406.057,2.031.631,1.741,1.836s-.7.975-.929,1.033a9.306,9.306,0,0,1-1.277,0" transform="translate(-384.295 -200.368)" fill="#fff"/>
          <path id="Trazado_7440" data-name="Trazado 7440" d="M173.929,215.753s-1.857.115-1.625-1.32a1.916,1.916,0,0,1,2.089-1.549c.406.057,2.031.631,1.741,1.836s-.7.975-.929,1.033a9.306,9.306,0,0,1-1.277,0" transform="translate(-161.992 -200.368)" fill="#fff"/>
        </g>
      </g>
    </g>
  </g>
</svg>
