<svg id="ICP" xmlns="http://www.w3.org/2000/svg" xmlns:xlink="http://www.w3.org/1999/xlink" width="45" height="45" viewBox="0 0 45 45">
  <defs>
    <linearGradient id="linear-gradient" x1="0.817" y1="0.89" x2="0.222" y2="0.107" gradientUnits="objectBoundingBox">
      <stop offset="0" stop-color="#c4c3c3"/>
      <stop offset="1" stop-color="#f8f7f7"/>
    </linearGradient>
    <linearGradient id="linear-gradient-2" x1="0.26" y1="23.804" x2="0.931" y2="22.959" gradientUnits="objectBoundingBox">
      <stop offset="0.21" stop-color="#f15a24"/>
      <stop offset="0.68" stop-color="#fbb03b"/>
    </linearGradient>
    <linearGradient id="linear-gradient-3" x1="0.74" y1="22.61" x2="0.068" y2="23.457" gradientUnits="objectBoundingBox">
      <stop offset="0.21" stop-color="#ed1e79"/>
      <stop offset="0.89" stop-color="#522785"/>
    </linearGradient>
  </defs>
  <g id="ICP-2" data-name="ICP">
    <g id="Grupo_6070" data-name="Grupo 6070">
      <circle id="Elipse_356" data-name="Elipse 356" cx="22.5" cy="22.5" r="22.5" fill="url(#linear-gradient)"/>
      <g id="Grupo_6069" data-name="Grupo 6069">
        <path id="Trazado_3825" data-name="Trazado 3825" d="M95.294,57.1c-1.615,0-3.374.86-5.233,2.555A22.4,22.4,0,0,0,87.85,62s.9,1.027,1.895,2.111a21.85,21.85,0,0,1,2.2-2.37c1.651-1.51,2.727-1.818,3.338-1.818a4.262,4.262,0,1,1,0,8.524,1.851,1.851,0,0,1-.406-.049,5.2,5.2,0,0,0,2.09.529c4.255,0,5.084-2.876,5.135-3.081a7.253,7.253,0,0,0,.2-1.646A7.071,7.071,0,0,0,95.294,57.1Z" transform="translate(-65.293 -42.439)" fill="url(#linear-gradient-2)"/>
        <path id="Trazado_3826" data-name="Trazado 3826" d="M38.732,78.056c1.612,0,3.371-.86,5.23-2.568a22.393,22.393,0,0,0,2.216-2.334s-.9-1.027-1.892-2.113a21.925,21.925,0,0,1-2.2,2.37c-1.651,1.5-2.737,1.818-3.338,1.818a4.262,4.262,0,1,1,0-8.524,1.831,1.831,0,0,1,.4.049,5.235,5.235,0,0,0-2.09-.514c-4.252,0-5.084,2.873-5.135,3.081a7.259,7.259,0,0,0-.2,1.648A7.058,7.058,0,0,0,38.732,78.056Z" transform="translate(-23.582 -49.232)" fill="url(#linear-gradient-3)"/>
        <path id="Trazado_3827" data-name="Trazado 3827" d="M42.554,61.8c-.465-.442-2.737-2.247-4.912-2.311-3.877-.1-5.017,2.663-5.115,3.02A7.051,7.051,0,0,1,39.319,57.1c2.683,0,5.392,2.568,7.4,4.9h0s.9,1.027,1.892,2.113c0,0,1.125,1.3,2.311,2.444a8.994,8.994,0,0,0,4.9,2.283c3.985.11,5.084-2.8,5.135-3.02a7.053,7.053,0,0,1-6.807,5.441c-2.683,0-5.392-2.568-7.408-4.9v.015s-.9-1.027-1.895-2.113A25.953,25.953,0,0,0,42.554,61.8Zm-10.034.737a.159.159,0,0,0,0-.026Z" transform="translate(-24.17 -42.439)" fill="#29abe2" fill-rule="evenodd"/>
      </g>
    </g>
  </g>
</svg>
