<svg id="Soles" xmlns="http://www.w3.org/2000/svg" xmlns:xlink="http://www.w3.org/1999/xlink" width="45" height="45" viewBox="0 0 45 45">
  <defs>
    <linearGradient id="linear-gradient" x1="0.282" y1="0.085" x2="0.829" y2="0.848" gradientUnits="objectBoundingBox">
      <stop offset="0" stop-color="#dd4e5b"/>
      <stop offset="1" stop-color="#760812"/>
    </linearGradient>
  </defs>
  <g id="PERUANOS">
    <path id="Elipse_215" data-name="Elipse 215" d="M22.5,0A22.5,22.5,0,1,1,0,22.5,22.5,22.5,0,0,1,22.5,0Z" fill="url(#linear-gradient)"/>
    <path id="Trazado_6593" data-name="Trazado 6593" d="M-4.457.264A12.6,12.6,0,0,1-7.988-.231a8.281,8.281,0,0,1-2.739-1.287L-9.517-4.2A8.211,8.211,0,0,0-7.163-3.036a8.842,8.842,0,0,0,2.728.44,4.358,4.358,0,0,0,2.244-.451,1.363,1.363,0,0,0,.726-1.2,1.146,1.146,0,0,0-.429-.913,3.252,3.252,0,0,0-1.1-.583q-.671-.22-1.815-.484a25.09,25.09,0,0,1-2.882-.836A4.682,4.682,0,0,1-9.616-8.4a3.624,3.624,0,0,1-.8-2.464A4.286,4.286,0,0,1-9.693-13.3,4.884,4.884,0,0,1-7.5-15.026a8.932,8.932,0,0,1,3.575-.638,11.838,11.838,0,0,1,2.882.352A8.514,8.514,0,0,1,1.417-14.3l-1.1,2.706A8.587,8.587,0,0,0-3.951-12.8a4,4,0,0,0-2.211.484,1.477,1.477,0,0,0-.715,1.276,1.248,1.248,0,0,0,.825,1.177,12.953,12.953,0,0,0,2.519.759,25.09,25.09,0,0,1,2.882.836,4.772,4.772,0,0,1,1.925,1.32,3.539,3.539,0,0,1,.8,2.442A4.205,4.205,0,0,1,1.34-2.1,4.952,4.952,0,0,1-.871-.374,9.014,9.014,0,0,1-4.457.264ZM9.253-18.524h3.058L5.051,2.2H1.993Z" transform="translate(22.5 30.662)" fill="#fff"/>
  </g>
</svg>
