<svg id="Bolivares" xmlns="http://www.w3.org/2000/svg" xmlns:xlink="http://www.w3.org/1999/xlink" width="45" height="45" viewBox="0 0 45 45">
  <defs>
    <linearGradient id="linear-gradient" x1="0.197" y1="0.116" x2="0.813" y2="0.871" gradientUnits="objectBoundingBox">
      <stop offset="0" stop-color="#b25967"/>
      <stop offset="1" stop-color="#3e141a"/>
    </linearGradient>
  </defs>
  <g id="Bolivares-2" data-name="Bolivares">
    <path id="Elipse_215" data-name="Elipse 215" d="M22.5,0A22.5,22.5,0,1,1,0,22.5,22.5,22.5,0,0,1,22.5,0Z" fill="url(#linear-gradient)"/>
    <path id="Trazado_6595" data-name="Trazado 6595" d="M-5.939-5.824a2.953,2.953,0,0,1,1.5,1.016,2.8,2.8,0,0,1,.544,1.752A2.588,2.588,0,0,1-5.035-.792,5.849,5.849,0,0,1-8.371,0h-5.792V-11.2h5.472a5.356,5.356,0,0,1,3.144.784,2.481,2.481,0,0,1,1.1,2.128,2.731,2.731,0,0,1-.392,1.456A2.746,2.746,0,0,1-5.939-5.824Zm-5.648-3.424v2.64h2.576a2.6,2.6,0,0,0,1.456-.336,1.121,1.121,0,0,0,.5-.992,1.1,1.1,0,0,0-.5-.984,2.651,2.651,0,0,0-1.456-.328Zm3.024,7.3a2.872,2.872,0,0,0,1.544-.336,1.151,1.151,0,0,0,.52-1.04q0-1.392-2.064-1.392h-3.024v2.768ZM.816.128a8.362,8.362,0,0,1-2.1-.264A5.476,5.476,0,0,1-2.912-.8l.832-1.792a5.236,5.236,0,0,0,1.392.6,5.834,5.834,0,0,0,1.6.232Q2.5-1.76,2.5-2.544a.555.555,0,0,0-.432-.528A6.4,6.4,0,0,0,.736-3.344a12.811,12.811,0,0,1-1.744-.368A2.706,2.706,0,0,1-2.2-4.448a2.093,2.093,0,0,1-.5-1.5A2.356,2.356,0,0,1-2.232-7.4,3.038,3.038,0,0,1-.856-8.384,5.877,5.877,0,0,1,1.28-8.736a8.383,8.383,0,0,1,1.816.2,5.076,5.076,0,0,1,1.5.552L3.76-6.208a4.967,4.967,0,0,0-2.48-.64,2.523,2.523,0,0,0-1.2.224.659.659,0,0,0-.4.576.572.572,0,0,0,.432.56,7.648,7.648,0,0,0,1.376.3,14.729,14.729,0,0,1,1.728.376,2.6,2.6,0,0,1,1.168.728,2.066,2.066,0,0,1,.5,1.472A2.273,2.273,0,0,1,4.4-1.184,3.064,3.064,0,0,1,3-.216,6.237,6.237,0,0,1,.816.128Zm9.475.064a9.164,9.164,0,0,1-2.568-.36A6.023,6.023,0,0,1,5.731-1.1l.88-1.952a5.972,5.972,0,0,0,1.712.848,6.43,6.43,0,0,0,1.984.32,3.17,3.17,0,0,0,1.632-.328.991.991,0,0,0,.528-.872.834.834,0,0,0-.312-.664,2.365,2.365,0,0,0-.8-.424q-.488-.16-1.32-.352a18.247,18.247,0,0,1-2.1-.608,3.405,3.405,0,0,1-1.4-.976A2.636,2.636,0,0,1,5.955-7.9a3.117,3.117,0,0,1,.528-1.768,3.552,3.552,0,0,1,1.592-1.256,6.5,6.5,0,0,1,2.6-.464,8.609,8.609,0,0,1,2.1.256,6.192,6.192,0,0,1,1.792.736l-.8,1.968a6.245,6.245,0,0,0-3.1-.88,2.91,2.91,0,0,0-1.608.352,1.074,1.074,0,0,0-.52.928.907.907,0,0,0,.6.856,9.42,9.42,0,0,0,1.832.552,18.247,18.247,0,0,1,2.1.608,3.471,3.471,0,0,1,1.4.96,2.574,2.574,0,0,1,.584,1.776,3.058,3.058,0,0,1-.536,1.752A3.6,3.6,0,0,1,12.9-.272,6.555,6.555,0,0,1,10.291.192Z" transform="translate(23 28.333)" fill="#fff"/>
  </g>
</svg>
