<svg id="DOT" xmlns="http://www.w3.org/2000/svg" xmlns:xlink="http://www.w3.org/1999/xlink" width="45" height="45" viewBox="0 0 45 45">
  <defs>
    <linearGradient id="linear-gradient" x1="0.242" y1="0.079" x2="0.832" y2="0.873" gradientUnits="objectBoundingBox">
      <stop offset="0" stop-color="#fc4ca9"/>
      <stop offset="1" stop-color="#b7083e"/>
    </linearGradient>
  </defs>
  <g id="DOT-2" data-name="DOT" transform="translate(-1730 -364)">
    <g id="BTC" transform="translate(1742.855 372.609)">
      <path id="Elipse_215" data-name="Elipse 215" d="M22.5,0A22.5,22.5,0,1,1,0,22.5,22.5,22.5,0,0,1,22.5,0Z" transform="translate(-12.855 -8.609)" fill="url(#linear-gradient)"/>
    </g>
    <g id="Grupo_6180" data-name="Grupo 6180" transform="translate(1742.174 372.687)">
      <path id="Trazado_6935" data-name="Trazado 6935" d="M10.466,0A10.508,10.508,0,0,0,0,10.466a10.751,10.751,0,0,0,.552,3.4,1.5,1.5,0,0,0,1.841.917,1.49,1.49,0,0,0,.89-1.834,6.906,6.906,0,0,1-.407-2.668,7.55,7.55,0,1,1,8,7.763s-1.469.089-2.2.179a7.6,7.6,0,0,0-.8.159.1.1,0,0,1-.137,0h0a.1.1,0,0,1,0-.117l.227-1.241,1.38-6.205a1.435,1.435,0,1,0-2.806-.6S3.262,25.407,3.262,25.545a1.379,1.379,0,0,0,1,1.677l.024.006h.076a1.378,1.378,0,0,0,1.68-.99.374.374,0,0,0,.009-.038.354.354,0,0,1,0-.068c.041-.179.455-2.2.455-2.2A3.723,3.723,0,0,1,9.584,21c.317-.049,1.648-.138,1.648-.138A10.459,10.459,0,0,0,10.466,0Z" fill="#fff"/>
      <path id="Trazado_6936" data-name="Trazado 6936" d="M816.767,2182.987a1.744,1.744,0,0,0-2.063,1.352c0,.009,0,.018-.005.026a1.737,1.737,0,0,0,1.328,2.068h.052a1.709,1.709,0,0,0,2.063-1.261c0-.007,0-.014.006-.021v-.1A1.808,1.808,0,0,0,816.767,2182.987Z" transform="translate(-805.666 -2158.854)" fill="#fff"/>
    </g>
  </g>
</svg>
