<svg id="UNI" xmlns="http://www.w3.org/2000/svg" xmlns:xlink="http://www.w3.org/1999/xlink" width="45" height="45" viewBox="0 0 45 45">
  <defs>
    <linearGradient id="linear-gradient" x1="0.193" y1="0.126" x2="0.761" y2="0.908" gradientUnits="objectBoundingBox">
      <stop offset="0" stop-color="#ff007a"/>
      <stop offset="1" stop-color="#762955"/>
    </linearGradient>
  </defs>
  <g id="UNI-2" data-name="UNI" transform="translate(0)">
    <circle id="Elipse_549" data-name="Elipse 549" cx="21" cy="21" r="21" transform="translate(2 1)" fill="#fff"/>
    <path id="Trazado_3820" data-name="Trazado 3820" d="M74.015,75.4a.927.927,0,0,0,.619-.257.377.377,0,0,0-.167-.57c-.452-.282-1.137-.049-1.137.385C73.33,75.166,73.682,75.4,74.015,75.4Z" transform="translate(-54.501 -55.336)" fill="#ff007a"/>
    <path id="Trazado_3821" data-name="Trazado 3821" d="M44.919,104.221c-.285-.185-.719-.1-.719.149a.169.169,0,0,0,.134.167c.149.085.167.167.049.352s-.116.352.033.467a.478.478,0,0,0,.719-.216A.688.688,0,0,0,44.919,104.221Z" transform="translate(-32.85 -77.39)" fill="#ff007a"/>
    <path id="Trazado_3822" data-name="Trazado 3822" d="M22.49,0a22.5,22.5,0,1,0,22.5,22.5A22.5,22.5,0,0,0,22.49,0Zm8.66,33.118a2.18,2.18,0,0,1-.349.167,1.25,1.25,0,0,1,.149-.367,3.322,3.322,0,0,0,.151-2.59,10.749,10.749,0,0,0-1.338-2.406,15.886,15.886,0,0,1-1.371-2.172,3.9,3.9,0,0,1-.3-2.706c.033-.085.067-.167.1-.167a.711.711,0,0,1,.234.116c.2.134.619.367,1.689.952A8.495,8.495,0,0,1,32.77,25.9a4.108,4.108,0,0,1,.886,2.02,6.644,6.644,0,0,1-.082,1.99h0a4.924,4.924,0,0,1-2.424,3.207Zm3.425-7.758a4.079,4.079,0,0,1-.534,1.2c-.015,0-.049-.082-.049-.216a2.719,2.719,0,0,0-.97-1.89,13.37,13.37,0,0,0-3.81-1.938c-3.307-1.335-4.477-2.493-4.477-4.444,0-.282.018-.513.018-.513.1.069.193.141.282.218.668.534,1.42.77,3.51,1.071a14.377,14.377,0,0,1,2.567.534,4.879,4.879,0,0,1,3.574,3.892,6.732,6.732,0,0,1-.11,2.085Zm-4.192-12.6c.116.75.167.85.968,1.669.367.385.8.87.97,1.071l.282.367-.282-.257a10.072,10.072,0,0,0-1.338-1.053c-.116-.067-.133-.067-.216.015s-.085.169-.085.652a3.617,3.617,0,0,1-.367,1.7c-.134.257-.151.2-.033-.082a2.44,2.44,0,0,0,.1-1.027c0-1.453-.167-1.8-1.186-2.39-.257-.149-.685-.367-.937-.483a4.031,4.031,0,0,1-.449-.218,7.458,7.458,0,0,1,1.4.418c.585.234.685.257.752.234s.085-.185.1-.6a3.64,3.64,0,0,1,.3-1.438,1.081,1.081,0,0,1,.151-.285.678.678,0,0,1-.067.257A3.181,3.181,0,0,0,30.382,12.762ZM28.51,13.948a6.868,6.868,0,0,1,1.2.7,1.612,1.612,0,0,1,.118.467,2.824,2.824,0,0,1-.185,1.823.485.485,0,0,0-.049.534.513.513,0,0,0,.452.285c.4,0,.819-.637,1.027-1.522l.082-.349.151.167a6.576,6.576,0,0,1,1.62,3.207l.033.257-.149-.218a2.86,2.86,0,0,0-.8-.852,4.906,4.906,0,0,0-2.757-.583,11.367,11.367,0,0,1-3.058-.47c-1.376-.449-2.069-1.04-3.7-3.2a15.723,15.723,0,0,0-1.62-1.9,5.664,5.664,0,0,0-3.26-1.653c-.349-.051-.367-.067-.2-.085a5.617,5.617,0,0,1,1.571.134A6.786,6.786,0,0,1,22.428,13l.3.352.434-.067a9.307,9.307,0,0,1,5.348.665Zm-5.33,12.8a11.42,11.42,0,0,0,1.486-.3,2.884,2.884,0,0,0,2.205-3.376,3.867,3.867,0,0,0-.167-.7l-.085-.257.151.185a2.906,2.906,0,0,1,.534.968,2.074,2.074,0,0,1,.118.937,2.121,2.121,0,0,1-.118.9,3.017,3.017,0,0,1-.7,1.119,4.022,4.022,0,0,1-2.506,1.1c-.2.015-.77.067-1.284.1a9.807,9.807,0,0,0-2.839.467c-.1.033-.2.067-.218.051a5.172,5.172,0,0,1,.9-.537A9.826,9.826,0,0,1,23.181,26.746ZM17.248,11.658l.033-.362.167.033a3.913,3.913,0,0,1,1.071.4c.668.4.968.952,1.253,2.311.085.4.2.87.257,1.027a5.936,5.936,0,0,0,.668,1.2c.185.257.067.4-.352.367a3.427,3.427,0,0,1-2.038-1.4A5.9,5.9,0,0,1,17.248,11.658Zm1.8,7.3a1.715,1.715,0,0,1,1.027.1,1.305,1.305,0,0,1,.752,1.2c-.085.485-.87.886-1.8.886-.467,0-.634-.067-.819-.3a1.456,1.456,0,0,1-.082-.9,1.484,1.484,0,0,1,.927-.986ZM20.1,28.87a6.238,6.238,0,0,1,2.157.082A3.73,3.73,0,0,1,24.359,30.3a5.015,5.015,0,0,1,.77,2.272c.067.452.151.919.167,1.027a2.236,2.236,0,0,0,.737,1.322,2.557,2.557,0,0,0,2.311.067,1.143,1.143,0,0,1,.282-.085,2.564,2.564,0,0,1-.716.485,2.347,2.347,0,0,1-1.2.282,2.411,2.411,0,0,1-2.038-1.253,9.044,9.044,0,0,1-.542-1.109,4.013,4.013,0,0,0-1.571-2.205,2.054,2.054,0,0,0-1.954-.185,1.258,1.258,0,0,0-.434,1.956,1.715,1.715,0,0,0,.952.513,1.027,1.027,0,0,0,1.142-.878.871.871,0,0,0,0-.141.8.8,0,0,0-.552-.819c-.534-.234-1.119.033-1.1.552a.457.457,0,0,0,.318.449c.134.067.134.067.033.051a.62.62,0,0,1-.218-1.086,1.22,1.22,0,0,1,1.8.385,1.756,1.756,0,0,1,.033,1.135,1.563,1.563,0,0,1-1.9.9,2.738,2.738,0,0,1-1.453-.986A4.446,4.446,0,0,0,15.92,31.27l-.318-.049.352-.334A9.052,9.052,0,0,1,20.1,28.87ZM9.463,6.4c3.3,3.615,8.313,9.137,8.837,9.738l.218.234-.018.385a1.563,1.563,0,0,1-.567,1.217,3.064,3.064,0,0,1-1.838.752,1.258,1.258,0,0,0-.919.385c-.218.234-.282.513-.334,1.2a6,6,0,0,1-.734,2.642c-.516,1.086-.6,1.438-.508,2.008a2.68,2.68,0,0,0,1.386,1.8,3,3,0,0,1,1.171,1.137,1.361,1.361,0,0,1,.116.7,1.517,1.517,0,0,1-.5,1.284,6.615,6.615,0,0,1-3.276,1.6c-.6.134-.634.134-.634,0a4.29,4.29,0,0,0-.619-1.219,5.6,5.6,0,0,1-.8-1.571,4.151,4.151,0,0,1-.218-1.635,2.824,2.824,0,0,1,.334-1.338A6.958,6.958,0,0,1,11.61,24.23a7.012,7.012,0,0,0,1.9-3.851,3.722,3.722,0,0,1,.8-2.257c.257-.3.334-.416.334-.634a29.458,29.458,0,0,0-1.7-3.209c-2.038-3.643-2.038-3.643-1.972-3.61.018.018.97,1.471,2.09,3.227,1.458,2.277,2.11,3.225,2.262,3.376a1.194,1.194,0,0,0,.8.349,2.531,2.531,0,0,0,.952-.257c.418-.234.513-.549.257-.886S12.909,11,9.266,6.557Z" transform="translate(0.01)" fill="url(#linear-gradient)"/>
  </g>
</svg>
