<svg xmlns="http://www.w3.org/2000/svg" width="79.174" height="79.174" viewBox="0 0 79.174 79.174">
  <g id="Grupo_9868" data-name="Grupo 9868" transform="translate(-262.002 -1218.001)">
    <g id="Grupo_9867" data-name="Grupo 9867" transform="translate(262.001 1218.001)">
      <path id="Elipse_618" data-name="Elipse 618" d="M39.587,2.14A37.447,37.447,0,0,0,13.108,66.066,37.447,37.447,0,0,0,66.066,13.108,37.2,37.2,0,0,0,39.587,2.14m0-2.14A39.587,39.587,0,1,1,0,39.587,39.587,39.587,0,0,1,39.587,0Z" transform="translate(0 0)" fill="#9192b3"/>
      <path id="Elipse_619" data-name="Elipse 619" d="M32.941,2A30.953,30.953,0,0,0,20.9,61.454,30.953,30.953,0,0,0,44.985,4.427,30.749,30.749,0,0,0,32.941,2m0-2A32.941,32.941,0,1,1,0,32.941,32.941,32.941,0,0,1,32.941,0Z" transform="translate(6.646 6.646)" fill="#9192b3"/>
      <path id="Elipse_619_-_Contorno" data-name="Elipse 619 - Contorno" d="M33.112-.15A33.262,33.262,0,0,1,56.631,56.631,33.262,33.262,0,1,1,9.592,9.592,33.044,33.044,0,0,1,33.112-.15Zm0,65.881A32.62,32.62,0,0,0,56.177,10.046,32.62,32.62,0,0,0,10.046,56.177,32.406,32.406,0,0,0,33.112,65.731Zm0-63.885A31.274,31.274,0,0,1,45.281,61.92,31.274,31.274,0,0,1,20.942,4.3,31.067,31.067,0,0,1,33.112,1.846Zm0,61.888A30.632,30.632,0,0,0,45.031,4.894,30.632,30.632,0,0,0,21.192,61.329,30.429,30.429,0,0,0,33.112,63.735Z" transform="translate(6.475 6.475)" fill="#9192b3"/>
    </g>
    <path id="Icon_material-location-searching" data-name="Icon material-location-searching" d="M34.6,18.1A14.932,14.932,0,0,0,21.422,4.92V1.5H18.1V4.92A14.932,14.932,0,0,0,4.92,18.1H1.5v3.32H4.92A14.932,14.932,0,0,0,18.1,34.6v3.42h3.32V34.6A14.932,14.932,0,0,0,34.6,21.422h3.42V18.1ZM19.762,31.383A11.621,11.621,0,1,1,31.383,19.762,11.613,11.613,0,0,1,19.762,31.383Z" transform="translate(281.826 1237.826)" fill="#9192b3"/>
  </g>
</svg>
