<svg id="ADA" xmlns="http://www.w3.org/2000/svg" xmlns:xlink="http://www.w3.org/1999/xlink" width="45" height="45" viewBox="0 0 45 45">
  <defs>
    <linearGradient id="linear-gradient" x1="0.164" y1="0.158" x2="0.88" y2="0.78" gradientUnits="objectBoundingBox">
      <stop offset="0" stop-color="#25abf5"/>
      <stop offset="0.004" stop-color="#25abf5"/>
      <stop offset="1" stop-color="#1424a3"/>
    </linearGradient>
  </defs>
  <g id="ADA-2" data-name="ADA">
    <path id="Trazado_3772" data-name="Trazado 3772" d="M321.786,896.851a22.5,22.5,0,1,1-22.5,22.5,22.5,22.5,0,0,1,22.5-22.5" transform="translate(-299.286 -896.851)" fill="url(#linear-gradient)"/>
    <path id="Trazado_3773" data-name="Trazado 3773" d="M345.238,933.18a.8.8,0,1,1-.241,1.305.813.813,0,0,1,.241-1.305m-6.694.722a.628.628,0,1,1-.074,1.167.634.634,0,0,1,.074-1.167m13.71,1.179a.626.626,0,0,1-.116-1.187c.441-.215.846.188.911.606a.686.686,0,0,1-.8.581m-12.187,1.67a.968.968,0,1,1-.136,1.6.977.977,0,0,1,.136-1.6m9.649.424a.978.978,0,0,1,1.746-.041,1.026,1.026,0,0,1-.638,1.42,1.01,1.01,0,0,1-1.107-1.378m-5.284,1.337a1.2,1.2,0,0,1,1.156-1.133,1.27,1.27,0,0,1,.992.644,1.141,1.141,0,0,1-.534,1.555,1.514,1.514,0,0,1-.851.074,1.238,1.238,0,0,1-.764-1.14m-9.955.91a.8.8,0,1,1-.129,1.337.81.81,0,0,1,.129-1.337m21.377,0a.8.8,0,1,1,.088,1.374.8.8,0,0,1-.088-1.374m-8.622,1.123a1.93,1.93,0,1,1-1.195,2.506,1.939,1.939,0,0,1,1.195-2.506m-4.743.1a1.929,1.929,0,1,1-.9,2.611,1.946,1.946,0,0,1,.9-2.611m-4.749,1.624a1.213,1.213,0,0,1,1.162-.992,1.28,1.28,0,0,1,1.129,1.13,1.2,1.2,0,0,1-1.126,1.169,1.132,1.132,0,0,1-1.165-1.308m14.027-.866a1.138,1.138,0,1,1-.085,1.97,1.146,1.146,0,0,1,.085-1.97m-11.209,3.045a1.929,1.929,0,1,1-1.242,2.692,1.946,1.946,0,0,1,1.242-2.692m9,0a1.931,1.931,0,1,1-1.138,2.767,1.951,1.951,0,0,1,1.138-2.767m-14.336.959a.977.977,0,0,1,1.222,1.231.965.965,0,0,1-1.562.409.977.977,0,0,1,.34-1.641m19.439,1.032a1.1,1.1,0,0,1,1.023-1.153,1.028,1.028,0,0,1,.93,1.009.969.969,0,0,1-1.408.854,1.309,1.309,0,0,1-.546-.71m-22.966-.683a.628.628,0,1,1-.252.963A.639.639,0,0,1,331.692,945.747Zm27.205-.011a.622.622,0,0,1,.911.294.612.612,0,0,1-.606.853c-.612.056-.811-.877-.3-1.147m-16,2.6a1.929,1.929,0,1,1-1.5,1.859,1.951,1.951,0,0,1,1.5-1.859m4.5,0a1.931,1.931,0,1,1-1.413,1.425,1.941,1.941,0,0,1,1.413-1.425m-8.669.719a1.138,1.138,0,1,1-.708,1.877,1.147,1.147,0,0,1,.708-1.877m13.186.036a1.137,1.137,0,1,1-.215,2.028,1.14,1.14,0,0,1,.215-2.028m3.686,3.7a.792.792,0,0,1,.8-1.111.979.979,0,0,1,.671.411c.038.307.1.674-.154.911a.793.793,0,0,1-1.32-.212m-21.126-.966a.8.8,0,0,1,1.193.806.8.8,0,1,1-1.193-.806m10.64,1.165a1.135,1.135,0,1,1-.212,2.016,1.148,1.148,0,0,1,.212-2.016m-4.928,1.15a.965.965,0,0,1,1.352.9.953.953,0,0,1-1.065.941.953.953,0,0,1-.287-1.843m9.982.01a.969.969,0,1,1-.114,1.624.977.977,0,0,1,.114-1.624m1.736,4.291a.683.683,0,0,1,.495-1.011c.359.073.738.343.662.758a.638.638,0,0,1-1.157.253m-13.78-.361c.109-.329.374-.657.762-.571a.631.631,0,0,1,.238,1.155.676.676,0,0,1-1-.584m6.648.378a.792.792,0,0,1,1.155-.465c.275.118.355.425.425.687-.038.136-.071.272-.1.408a.9.9,0,0,1-.672.4.792.792,0,0,1-.8-1.026" transform="translate(-323.088 -923.794)" fill="#fff"/>
  </g>
</svg>
