<svg id="DAI" xmlns="http://www.w3.org/2000/svg" xmlns:xlink="http://www.w3.org/1999/xlink" width="45" height="45" viewBox="0 0 45 45">
  <defs>
    <linearGradient id="linear-gradient" x1="0.858" y1="0.85" x2="0.194" y2="0.111" gradientUnits="objectBoundingBox">
      <stop offset="0" stop-color="#866703"/>
      <stop offset="1" stop-color="#f2df00"/>
    </linearGradient>
  </defs>
  <g id="DAI-2" data-name="DAI">
    <circle id="Elipse_214" data-name="Elipse 214" cx="22.5" cy="22.5" r="22.5" fill="url(#linear-gradient)"/>
    <path id="path2" d="M1850.745,959.615a.575.575,0,0,1,.549-.6h6.831a9.308,9.308,0,0,1,9.161,6.146h1.751a.576.576,0,0,1,.549.6v1.007a.575.575,0,0,1-.549.6h-.673a.578.578,0,0,0-.549.6v.511c0,.188,0,.375-.015.563a.578.578,0,0,0,.52.63l.028,0h.681a.576.576,0,0,1,.549.6v1.007a.576.576,0,0,1-.549.6h-1.795a9.331,9.331,0,0,1-9.118,6.073h-6.833a.576.576,0,0,1-.55-.6V971.88h-2.015a.576.576,0,0,1-.549-.6v-1.007a.575.575,0,0,1,.549-.6h2.015v-2.312h-2.015a.575.575,0,0,1-.549-.6V965.76a.575.575,0,0,1,.549-.6h2.015Zm2.063,12.863v2.9a.575.575,0,0,0,.549.6h4.77a7.209,7.209,0,0,0,6.855-4.1h-11.625a.575.575,0,0,0-.547.6Zm12.806-2.8h-12.806v-2.312h12.81a8.4,8.4,0,0,1,.071,1.116v.054a8.437,8.437,0,0,1-.075,1.14Zm-7.488-8.689a7.215,7.215,0,0,1,6.872,4.176h-11.64a.575.575,0,0,1-.549-.6v-2.987a.575.575,0,0,1,.549-.6Z" transform="translate(-1835.691 -946.136)" fill="#fff" fill-rule="evenodd"/>
  </g>
</svg>
