<svg id="XLM" xmlns="http://www.w3.org/2000/svg" xmlns:xlink="http://www.w3.org/1999/xlink" width="45" height="45" viewBox="0 0 45 45">
  <defs>
    <linearGradient id="linear-gradient" x1="0.154" y1="0.15" x2="0.818" y2="0.876" gradientUnits="objectBoundingBox">
      <stop offset="0" stop-color="#837cde"/>
      <stop offset="1" stop-color="#100355"/>
    </linearGradient>
  </defs>
  <g id="XLM-2" data-name="XLM">
    <g id="Grupo_6068" data-name="Grupo 6068">
      <circle id="Elipse_353" data-name="Elipse 353" cx="22.5" cy="22.5" r="22.5" fill="url(#linear-gradient)"/>
      <g id="Grupo_6067" data-name="Grupo 6067">
        <path id="Trazado_3809" data-name="Trazado 3809" d="M57.484,45.118l-3.338,1.7L38.057,55.006a8.779,8.779,0,0,1-.082-1.253,9.587,9.587,0,0,1,14.263-8.36l1.908-.971.282-.141a11.719,11.719,0,0,0-18.6,9.485,7.407,7.407,0,0,0,.036.891,2.123,2.123,0,0,1-1.158,2.054l-1.009.514v2.388l2.963-1.51h0l.965-.485.95-.48h0L55.545,48.5l1.908-.973,3.936-2.013v-2.39Z" transform="translate(-25.047 -31.253)" fill="#fff"/>
        <path id="Trazado_3810" data-name="Trazado 3810" d="M61.436,64.88,39.586,76l-1.905.976-3.91,1.99v2.375l3.9-1.977,3.338-1.7,16.1-8.216a9.139,9.139,0,0,1,.082,1.266,9.582,9.582,0,0,1-14.281,8.368l-.118.056L40.721,80.2a11.716,11.716,0,0,0,18.595-9.475,8.158,8.158,0,0,0-.033-.9,2.118,2.118,0,0,1,1.158-2.054l1.007-.514V64.88Z" transform="translate(-25.1 -48.222)" fill="#fff"/>
      </g>
    </g>
  </g>
</svg>
