<svg id="Dolares" xmlns="http://www.w3.org/2000/svg" xmlns:xlink="http://www.w3.org/1999/xlink" width="45" height="45" viewBox="0 0 45 45">
  <defs>
    <linearGradient id="linear-gradient" x1="0.157" y1="0.177" x2="0.871" y2="0.872" gradientUnits="objectBoundingBox">
      <stop offset="0" stop-color="#85bb65"/>
      <stop offset="1" stop-color="#324b16"/>
    </linearGradient>
  </defs>
  <g id="Dolares-2" data-name="Dolares">
    <path id="Elipse_215" data-name="Elipse 215" d="M22.5,0A22.5,22.5,0,1,1,0,22.5,22.5,22.5,0,0,1,22.5,0Z" fill="url(#linear-gradient)"/>
    <path id="Trazado_6591" data-name="Trazado 6591" d="M8.393-2.406A4.811,4.811,0,0,1,6.868,1.166a7.415,7.415,0,0,1-4.4,1.843V5.856H-.072V3.085a13.831,13.831,0,0,1-3.584-.661A9.02,9.02,0,0,1-6.4,1.051L-5-2.05A9.211,9.211,0,0,0-2.741-.855a10.345,10.345,0,0,0,2.669.61V-4.49a19.177,19.177,0,0,1-3.051-.966A5.379,5.379,0,0,1-5.207-7.02a4.194,4.194,0,0,1-.839-2.733,4.9,4.9,0,0,1,1.538-3.623A7.305,7.305,0,0,1-.072-15.218V-18.04H2.47v2.771a11.172,11.172,0,0,1,5.161,1.551L6.359-10.592A10.11,10.11,0,0,0,2.47-11.913v4.322a18.308,18.308,0,0,1,3.012.928A5.287,5.287,0,0,1,7.554-5.113,4.152,4.152,0,0,1,8.393-2.406ZM-1.953-9.956A1.3,1.3,0,0,0-1.47-8.914a3.977,3.977,0,0,0,1.4.686v-3.61a2.754,2.754,0,0,0-1.424.725A1.652,1.652,0,0,0-1.953-9.956ZM2.47-.347a2.742,2.742,0,0,0,1.373-.661A1.492,1.492,0,0,0,4.3-2.1a1.316,1.316,0,0,0-.47-1.042,4.13,4.13,0,0,0-1.36-.712Z" transform="translate(21.107 28.592)" fill="#fff"/>
  </g>
</svg>
