<svg id="USDC" xmlns="http://www.w3.org/2000/svg" xmlns:xlink="http://www.w3.org/1999/xlink" width="45" height="45" viewBox="0 0 45 45">
  <defs>
    <linearGradient id="linear-gradient" x1="0.241" y1="0.09" x2="0.812" y2="0.883" gradientUnits="objectBoundingBox">
      <stop offset="0" stop-color="#0c87ed"/>
      <stop offset="1" stop-color="#1f4291"/>
    </linearGradient>
  </defs>
  <g id="USDC-2" data-name="USDC">
    <path id="Elipse_216" data-name="Elipse 216" d="M22.5,0A22.5,22.5,0,1,1,0,22.5,22.5,22.5,0,0,1,22.5,0Z" fill="url(#linear-gradient)"/>
    <path id="Trazado_31" data-name="Trazado 31" d="M1624.818,974.458c0-2.265-1.361-3.043-4.078-3.375-1.941-.259-2.331-.776-2.331-1.687s.647-1.489,1.941-1.489a1.916,1.916,0,0,1,2.136,1.359.484.484,0,0,0,.454.324h1.035a.442.442,0,0,0,.454-.431h0v-.086a3.231,3.231,0,0,0-2.912-2.653v-1.554c0-.259-.187-.454-.516-.517h-.969c-.259,0-.456.188-.519.517v1.489a3.3,3.3,0,0,0-3.172,3.173c0,2.136,1.3,2.977,4.015,3.3,1.813.322,2.394.712,2.394,1.747s-.905,1.747-2.136,1.747c-1.687,0-2.265-.713-2.46-1.688a.473.473,0,0,0-.454-.388h-1.1a.44.44,0,0,0-.452.429v.089a3.614,3.614,0,0,0,3.431,3.107v1.554c0,.259.188.452.517.517h.971c.257,0,.452-.187.517-.517v-1.535a3.546,3.546,0,0,0,3.235-3.431Z" transform="translate(-1597.982 -950.105)" fill="#fff"/>
    <path id="Trazado_32" data-name="Trazado 32" d="M1589.923,967.583h0a11.956,11.956,0,0,1-7.083-15.354l.011-.027a11.814,11.814,0,0,1,7.072-7.125h0a.765.765,0,0,0,.478-.75V943.09a.563.563,0,0,0-.478-.585h0a.47.47,0,0,0-.317.081h0a14.452,14.452,0,0,0,0,27.48.484.484,0,0,0,.66-.175.467.467,0,0,0,.054-.146c.08-.081.08-.161.08-.321V968.3A1.065,1.065,0,0,0,1589.923,967.583Zm8.425-25a.482.482,0,0,0-.659.173h0a.528.528,0,0,0-.056.146c-.081.081-.081.161-.081.321v1.125a1.07,1.07,0,0,0,.476.8h0a11.956,11.956,0,0,1,7.083,15.354.036.036,0,0,1-.011.026,11.8,11.8,0,0,1-7.072,7.125h0a.765.765,0,0,0-.478.75v1.181h0a.605.605,0,0,0,.476.641h0a.48.48,0,0,0,.317-.079h0a14.515,14.515,0,0,0,0-27.561Z" transform="translate(-1571.466 -933.868)" fill="#fff"/>
  </g>
</svg>
