<svg id="BTC" xmlns="http://www.w3.org/2000/svg" xmlns:xlink="http://www.w3.org/1999/xlink" width="45" height="45" viewBox="0 0 45 45">
  <defs>
    <linearGradient id="linear-gradient" x1="0.181" y1="0.127" x2="0.831" y2="0.871" gradientUnits="objectBoundingBox">
      <stop offset="0" stop-color="#efae2e"/>
      <stop offset="1" stop-color="#d06b00"/>
    </linearGradient>
  </defs>
  <g id="BTC-2" data-name="BTC" transform="translate(12.855 8.609)">
    <path id="Elipse_215" data-name="Elipse 215" d="M22.5,0A22.5,22.5,0,1,1,0,22.5,22.5,22.5,0,0,1,22.5,0Z" transform="translate(-12.855 -8.609)" fill="url(#linear-gradient)"/>
    <path id="Trazado_3185" data-name="Trazado 3185" d="M66.946,47.26a4.977,4.977,0,0,0,2.881-3.235v-.036a4.8,4.8,0,0,0-3.007-5.672l.366-1.351a1.67,1.67,0,0,0-1.312-1.982A1.81,1.81,0,0,0,63.71,36.15l-.275,1L61.149,36.6l.275-.994a1.666,1.666,0,0,0-1.3-2.028h0a1.806,1.806,0,0,0-2.176,1.209h0l-.275,1L56.9,35.6a1.862,1.862,0,0,0-2.244,1.248h0a1.718,1.718,0,0,0,1.338,2.087l.777.187-1.393,5.135-.353,1.312-1.608,5.906-1.049-.257a1.861,1.861,0,0,0-2.244,1.248h0a1.718,1.718,0,0,0,1.338,2.09h0l1.049.257-.275,1.027a1.665,1.665,0,0,0,1.3,2.027,1.8,1.8,0,0,0,2.174-1.211h0l.275-1.012,2.291.539L58,57.212a1.664,1.664,0,0,0,1.3,2.026h0a1.8,1.8,0,0,0,2.173-1.209h0l.275-1.012.694.162a5.271,5.271,0,0,0,6.351-3.533l.3-1.125A4.724,4.724,0,0,0,66.946,47.26Zm-6.695-7.318,4.1.965A2.5,2.5,0,0,1,66.3,43.955l-.022.077a2.532,2.532,0,0,1-1.23,1.542,2.86,2.86,0,0,1-2.039.278h0l-4.092-.963Zm5.106,12.135a2.713,2.713,0,0,1-3.269,1.82h0l-5.555-1.312,1.341-4.945,5.552,1.312A2.506,2.506,0,0,1,65.376,52Z" transform="translate(-51.066 -33.531)" fill="#fff"/>
  </g>
</svg>
