<svg id="CRIPTO" xmlns="http://www.w3.org/2000/svg" xmlns:xlink="http://www.w3.org/1999/xlink" width="50" height="50" viewBox="0 0 50 50">
  <defs>
    <linearGradient id="linear-gradient" x1="0.854" y1="0.146" x2="0.146" y2="0.854" gradientUnits="objectBoundingBox">
      <stop offset="0" stop-color="#ff2d55"/>
      <stop offset="0.897" stop-color="#ffad5a"/>
      <stop offset="1" stop-color="#ffbc5b"/>
    </linearGradient>
    <linearGradient id="linear-gradient-2" x1="0.5" x2="0.5" y2="1" gradientUnits="objectBoundingBox">
      <stop offset="0" stop-color="#a524b3"/>
      <stop offset="1" stop-color="#ff2d55"/>
    </linearGradient>
    <linearGradient id="linear-gradient-4" x1="0.551" y1="0.683" x2="0.738" y2="0.923" gradientUnits="objectBoundingBox">
      <stop offset="0" stop-color="#e60101" stop-opacity="0.412"/>
      <stop offset="1" stop-color="#600909" stop-opacity="0.867"/>
    </linearGradient>
  </defs>
  <g id="MANA" transform="translate(-832 -555)">
    <g id="decentraland-mana-logo.webarchiv" transform="translate(832 555)">
      <circle id="Elipse_601" data-name="Elipse 601" cx="25" cy="25" r="25" fill="url(#linear-gradient)"/>
      <path id="Trazado_7473" data-name="Trazado 7473" d="M125.7,0V18.75h15.625Z" transform="translate(-107.988 16.25)" fill-rule="evenodd" fill="url(#linear-gradient-2)"/>
      <path id="Trazado_7474" data-name="Trazado 7474" d="M16.7,148.75H32.325V130Z" transform="translate(-14.613 -113.75)" fill="#fff" fill-rule="evenodd"/>
      <path id="Trazado_7475" data-name="Trazado 7475" d="M40,320a25.6,25.6,0,0,0,5,5H75a25.6,25.6,0,0,0,5-5Z" transform="translate(-35 -280)" fill="#fc9965" fill-rule="evenodd"/>
      <path id="Trazado_7476" data-name="Trazado 7476" d="M80,360a25,25,0,0,0,30,0Z" transform="translate(-70 -315)" fill="#ff2d55" fill-rule="evenodd"/>
      <path id="Trazado_7477" data-name="Trazado 7477" d="M252.3,0V13.75h11.462Z" transform="translate(-218.763 26.25)" fill-rule="evenodd" fill="url(#linear-gradient-2)"/>
      <path id="Trazado_7478" data-name="Trazado 7478" d="M48.15,280H16.7a24.893,24.893,0,0,0,2.912,5h28.55v-5Z" transform="translate(-14.613 -245)" fill="#ffbc5b" fill-rule="evenodd"/>
      <path id="Trazado_7479" data-name="Trazado 7479" d="M176.7,223.75h11.45V210Z" transform="translate(-154.613 -183.75)" fill="#fff" fill-rule="evenodd"/>
      <circle id="Elipse_602" data-name="Elipse 602" cx="6.25" cy="6.25" r="6.25" transform="translate(27.288 10)" fill="#ffc95b"/>
      <circle id="Elipse_603" data-name="Elipse 603" cx="3.125" cy="3.125" r="3.125" transform="translate(14.587 6.25)" fill="#ffc95b"/>
    </g>
    <circle id="Elipse_604" data-name="Elipse 604" cx="25" cy="25" r="25" transform="translate(832 555)" opacity="0.544" fill="url(#linear-gradient-4)" style="mix-blend-mode: multiply;isolation: isolate"/>
  </g>
</svg>
