<svg id="BCH" xmlns="http://www.w3.org/2000/svg" xmlns:xlink="http://www.w3.org/1999/xlink" width="45" height="45" viewBox="0 0 45 45">
  <defs>
    <linearGradient id="linear-gradient" x1="0.185" y1="0.139" x2="0.798" y2="0.883" gradientUnits="objectBoundingBox">
      <stop offset="0" stop-color="#00b82d"/>
      <stop offset="1" stop-color="#065d14"/>
    </linearGradient>
  </defs>
  <g id="BCASH">
    <path id="Elipse_213" data-name="Elipse 213" d="M22.5,0A22.5,22.5,0,1,1,0,22.5,22.5,22.5,0,0,1,22.5,0Z" fill="url(#linear-gradient)"/>
    <path id="Trazado_3184" data-name="Trazado 3184" d="M856.682,956.732a4.865,4.865,0,0,0,.769-4.125v-.037a4.875,4.875,0,0,0-5.22-3.587l-.362-1.346a1.669,1.669,0,0,0-2.043-1.182h0a1.669,1.669,0,0,0-1.179,2.044l.266.992-2.128.563-.267-.992a1.669,1.669,0,1,0-3.225.862l.267.992-.722.187a1.722,1.722,0,0,0-1.217,2.108h0a1.721,1.721,0,0,0,2.108,1.217l.72-.187,1.374,5.128.349,1.3,1.577,5.889-.977.261a1.721,1.721,0,0,0-1.217,2.107h0a1.721,1.721,0,0,0,2.107,1.217l.977-.261.27,1.009a1.67,1.67,0,0,0,3.227-.862l-.272-1.009,2.128-.562.272,1.009a1.669,1.669,0,0,0,2.043,1.182h0a1.669,1.669,0,0,0,1.179-2.044l-.27-1.009.645-.172a4.875,4.875,0,0,0,3.446-5.97l-.3-1.112A4.876,4.876,0,0,0,856.682,956.732Zm-9.021-3.35,3.806-1.02a2.511,2.511,0,0,1,3.075,1.775h0l.019.075a2.51,2.51,0,0,1-1.774,3.075l-3.806,1.02Zm10.071,8.274a2.51,2.51,0,0,1-1.775,3.075h0l-5.156,1.382-1.312-4.926,5.156-1.382a2.51,2.51,0,0,1,3.075,1.775h0Z" transform="translate(-829.002 -936.763)" fill="#fff"/>
  </g>
</svg>
