<svg id="Reales" xmlns="http://www.w3.org/2000/svg" xmlns:xlink="http://www.w3.org/1999/xlink" width="45" height="45" viewBox="0 0 45 45">
  <defs>
    <linearGradient id="linear-gradient" x1="0.2" y1="0.159" x2="0.793" y2="0.89" gradientUnits="objectBoundingBox">
      <stop offset="0" stop-color="#fedf00"/>
      <stop offset="1" stop-color="#9b881d"/>
    </linearGradient>
  </defs>
  <g id="Reales-2" data-name="Reales">
    <path id="Elipse_215" data-name="Elipse 215" d="M22.5,0A22.5,22.5,0,1,1,0,22.5,22.5,22.5,0,0,1,22.5,0Z" fill="url(#linear-gradient)"/>
    <path id="Trazado_6590" data-name="Trazado 6590" d="M-3.478,0l-2.97-4.29H-9.726V0H-13.29V-15.4h6.666a8.555,8.555,0,0,1,3.553.682A5.279,5.279,0,0,1-.75-12.782a5.333,5.333,0,0,1,.814,2.97A5.227,5.227,0,0,1-.761-6.853,5.229,5.229,0,0,1-3.1-4.95L.35,0Zm-.066-9.812A2.439,2.439,0,0,0-4.38-11.8,3.743,3.743,0,0,0-6.822-12.5h-2.9v5.368h2.9a3.7,3.7,0,0,0,2.442-.7A2.446,2.446,0,0,0-3.544-9.812ZM14.5-4.51a4.163,4.163,0,0,1-1.32,3.091A6.417,6.417,0,0,1,9.374.176V2.64h-2.2V.242a11.97,11.97,0,0,1-3.1-.572A7.806,7.806,0,0,1,1.7-1.518L2.906-4.2A7.971,7.971,0,0,0,4.864-3.168a8.953,8.953,0,0,0,2.31.528V-6.314a16.6,16.6,0,0,1-2.64-.836A4.655,4.655,0,0,1,2.73-8.5,3.629,3.629,0,0,1,2-10.868,4.242,4.242,0,0,1,3.335-14,6.322,6.322,0,0,1,7.174-15.6V-18.04h2.2v2.4A9.668,9.668,0,0,1,13.84-14.3l-1.1,2.706a8.749,8.749,0,0,0-3.366-1.144V-9a15.844,15.844,0,0,1,2.607.8,4.575,4.575,0,0,1,1.793,1.342A3.593,3.593,0,0,1,14.5-4.51ZM5.546-11.044a1.126,1.126,0,0,0,.418.9,3.442,3.442,0,0,0,1.21.594v-3.124a2.383,2.383,0,0,0-1.232.627A1.429,1.429,0,0,0,5.546-11.044ZM9.374-2.728A2.373,2.373,0,0,0,10.562-3.3a1.291,1.291,0,0,0,.4-.946,1.139,1.139,0,0,0-.407-.9,3.574,3.574,0,0,0-1.177-.616Z" transform="translate(22.5 28.5)" fill="#fff"/>
  </g>
</svg>
